<?xml version="1.0" encoding="utf-8"?>
<!DOCTYPE svg PUBLIC "-//W3C//DTD SVG 1.1//EN" "http://www.w3.org/Graphics/SVG/1.1/DTD/svg11.dtd">
<!-- Generated by geo2svg 2.1.2. https://d3js.org/d3-geo-projection/ -->
<svg version="1.1" xmlns="http://www.w3.org/2000/svg" xmlns:xlink="http://www.w3.org/1999/xlink" width="960" height="960" viewBox="0 0 960 960" fill="none">
  <path id="037930200" fill="#440154" d="M549.5,581.2L549.6,581.2L549.7,581L551.1,578.1L552.4,575.6L552.8,574.8L553,574.5L553,574.4L554.7,570.9L554.8,570.7L557.9,564.5L558.1,564.1L558.3,564.2L559,564.1L559.3,564.2L560.3,564.2L560.3,564.3L560.5,564.7L561.3,566.2L561.4,566.3L562.2,566.7L563,566.9L563.9,566.9L564.2,567L564.5,567.1L565.3,567.9L565.7,568.1L565.5,568.3L565.6,568.5L565.4,569.4L565.2,569.6L565.1,569.7L565,569.9L565.2,570L565.2,570.2L564.8,570.3L564.9,570.5L565.1,570.7L565.1,570.8L565.3,570.8L565.5,571L565.2,571.3L565.4,571.5L565.3,571.6L565.2,571.7L565.4,571.5L565.9,571.6L566.1,571.5L566.3,571.3L566.4,571.5L566.7,571.8L567.1,572L567.4,572.1L567.6,572.5L567.8,573.2L567.8,573.8L567.8,574.1L567.9,574L567.9,573.9L568,573.8L568.2,573.7L568.4,573.8L568.7,573.7L569.4,573.7L569.6,573.7L570.1,573.9L570.6,574.3L570.9,574.7L571,574.8L571.2,574.8L572.3,575.4L574,576.4L575,576.8L576.2,577.7L576.4,577.8L577.8,577.9L578,577.9L578.7,578.1L578.9,578L579.2,577.9L580,577.8L580.2,578.1L580.6,578.5L581.1,578.9L581.8,579.1L582,579.3L582,579.5L582.1,580.1L582.7,580.8L582.8,581L582.8,581.8L582.9,582.2L583.1,582.5L583.5,582.7L583.6,583L583.6,583.2L583.7,583.7L583.8,584L584.1,584.2L584.2,584.3L583.8,584.3L583.4,584.1L583.2,583.9L583,583.8L582.4,583.9L582.2,584L581.8,583.8L581.2,583.7L580.4,583.5L580.1,583.2L579.4,583.8L579.4,584L579.1,584L579,584.1L579,584.3L578.5,585.1L578.4,585.5L578.4,586.2L578.3,586.7L578.4,586.8L578.2,587L578,587.3L577.7,587.4L577.6,587.3L577.6,587.5L577.6,587.8L577.5,587.8L577.1,588.3L576.9,588.3L577,588.5L577.1,588.7L577.2,588.8L577.4,588.9L577.4,589.1L577.2,589.6L577,589.7L577,589.9L576.6,590.2L576.9,590.4L576.8,590.7L576.6,590.9L576.7,591L576.4,591.3L574.9,592.7L574.6,593.1L573.6,593.9L573.4,594.2L573,594.5L572.8,595L572.6,595.5L572.1,595.1L571.9,594.9L571.7,594.5L571.4,594.2L571,593.9L570.2,593.2L569.7,592.9L569.2,592.6L568.6,592.4L568.2,592.2L567.8,591.9L567.2,591.7L567,591.5L566.9,591.3L567,591L567.3,590.8L567.6,590.6L568.1,590.6L568.7,590.6L569.1,590.5L569.5,590.2L569.7,589.9L569.8,589.8L569.7,589.5L569.5,589.2L569,588.7L568.9,588.4L568.8,588.1L568.9,587.6L568.8,587.3L568.6,586.7L568.6,586.5L568.7,586.1L568.7,585.8L568.7,585.6L568.5,585.2L568.3,584.4L568.2,584L568.2,583.7L568.3,583.4L568.1,583.2L567.9,583L567.2,582.7L567,582.7L566.6,582.8L566.3,583L566.1,583.3L566.1,583.5L566.3,583.8L566.6,583.9L567,584.1L567.3,584.4L567.4,584.7L567.4,584.9L567.1,585.1L566.9,585.1L566.6,585.2L566.2,585.1L565.8,584.9L565.4,584.8L565,584.9L564.7,585.1L564.3,585.5L564.3,585.9L564.2,586.4L564.3,587.2L564.4,587.6L564.4,587.9L564.2,588.1L563.5,588.3L563.1,588.3L562.8,588.3L562.2,588.2L562,588L561.9,587.7L561.9,587.3L561.8,587L561.5,586.7L561.4,586.4L560.9,585.9L560.2,585.5L559.5,585.1L559.3,585.1L558.9,585.1L557.9,585.2L557.3,585.1L556.9,585.1L556.5,585.2L556.1,585.2L555.4,585L554.7,584.9L553.8,584.9L553.2,584.9L551.8,585.4L551.4,585.7L551.1,585.8L550.8,585.8L550.6,585.8L550.3,585.7L550,585.5L549.8,585.2L549.8,585L549.8,584.7L550.1,584.4L550.6,584L550.7,583.8L551,583.3L551,583.2L550.8,582.9L550.5,582.7L549.9,582.4L549.8,582.3L549.6,581.6L549.6,581.3Z"></path>
  <path id="089010100" fill="#481c6e" d="M430.1,609.9L430.3,609.8L430.4,609.6L430.4,609.5L430.5,609.3L430.5,609.2L430.5,608.6L430.6,608.2L430.9,608.2L431.3,608.2L431.5,608.3L431.7,608.6L431.8,608.7L432.4,609L432.6,609.3L433.2,610.2L433.7,610.8L433.8,610.9L433.9,611.2L433.9,611.4L433.7,611.6L433.7,611.7L433.7,611.8L434.2,612.2L435.1,612.9L434.2,613.9L434,613.8L433.7,613.5L433,613.2L432.5,613.2L432.4,613.2L431.7,612.8L431,612.4L430.9,612.1L430.9,612.1L430.8,611.9L430.7,611.7L430.6,611.5L430.5,611.2L430.3,610.8L430.1,610.6L430.1,610.6L430.2,610Z"></path>
  <path id="089010200" fill="#48186a" d="M431.5,608.3L431.8,607.9L432,607.7L432.2,607.4L432.9,607L433.1,606.7L433.1,606.7L433.3,606.7L433.5,606.7L433.4,606.3L433.6,606.2L433.7,606.1L434.2,606.2L434.3,606.1L434.3,605.8L434.7,605.5L434.8,605.5L435.1,605.7L435.2,605.7L435.4,605.7L435.5,605.8L435.9,606L436.3,606L436.8,606.1L436.8,606.4L436.9,606.5L436.9,606.7L436.8,606.9L436.8,607.2L436.6,607.6L436.7,607.9L436.7,608.5L436.7,608.5L436.8,608.7L436.8,609.1L436.8,609.6L436.8,610.4L436.9,610.5L437,610.7L437.3,611L436.9,611.2L436.4,611.7L435.9,612.2L435.1,612.9L434.2,612.2L433.7,611.8L433.7,611.7L433.7,611.6L433.9,611.4L433.9,611.2L433.8,610.9L433.7,610.8L433.2,610.2L432.6,609.3L432.4,609L431.8,608.7L431.7,608.6Z"></path>
  <path id="089010300" fill="#460b5e" d="M436.8,608.4L437,608.1L437.7,607.9L438,607.9L438.2,607.8L438.4,607.7L438.5,607.3L438.5,607.1L438.9,607.2L439.1,607L439.4,606.7L439.6,606.6L439.7,606.6L439.9,606.7L440.3,606.9L440.5,606.7L440.2,606.5L440.3,606.4L441,606.5L441.1,606.5L441.3,606.4L441.6,606.4L441.8,606.5L442,606.3L441.9,606.1L442.2,605.8L442.4,605.9L442.5,605.8L442.4,605.5L442.6,605.6L442.8,605.4L442.9,605.5L443.1,605.5L443.1,605.4L442.8,605L442.4,604.9L442.2,604.8L442.4,604.4L442.7,603.9L442.9,603.8L443.3,603.4L443.4,603.2L443.8,603L444,602.8L446.2,603.2L446.6,603L447,602.8L447.2,602.8L447.4,602.6L447.9,602.6L448.1,602.9L448,603.1L448.1,603.5L448.1,603.7L448,604.3L448.1,604.6L448.1,604.8L448.2,605L448.3,605.3L448.2,605.4L448.3,605.6L448.3,605.8L448.3,606.4L448.4,606.5L448.9,606.5L449.1,607L449.5,607.1L449.5,607.3L449.2,607.7L449.2,608L449.4,608.1L449.4,608.1L449.4,608.4L449.6,608.7L449.6,608.8L449.4,608.9L449.2,609.1L449.3,609.3L449.2,609.4L449.2,609.8L449.1,610L448.7,610.1L448.5,610.3L448.2,610.3L448.1,610.5L448.4,610.8L448.4,611L448.7,611.2L448.8,611.3L448.7,611.5L448.8,611.6L448.7,611.9L448.7,612.1L448.5,612.1L448.6,612.3L448.5,612.5L448.7,612.4L448.8,612.5L448.6,612.7L448.9,613L449,613.1L449.1,613.5L449.1,613.8L449.1,614.2L448.8,614.2L448.6,614.4L448.2,614.4L447.8,614.4L447.7,614.6L447.6,614.6L447.3,614.7L447.3,614.9L447,614.9L446.9,615.2L446.7,615.4L446.7,615.9L446.6,616L446.2,616.1L445.8,616.2L445.6,616.5L445.1,616.6L445,616.7L444.8,616.9L444.9,616.9L444.6,617L443.6,617L443.3,617.1L443.1,616.7L443,616.6L442.3,616.3L442.1,616.2L442.1,616L441.8,615.7L441.6,615.6L441.2,615.6L441,615.4L441.1,615.1L441.4,614.1L441.4,614L441.5,613.6L441.6,613.3L441.9,612.1L441.7,612L438.7,611.1L437.6,610.8L437.3,611L437,610.7L436.9,610.5L436.8,610.4L436.8,609.6L436.8,609.1Z"></path>
  <path id="089010400" fill="#450559" d="M444.8,616.9L445,616.7L445.1,616.6L445.6,616.5L445.8,616.2L446.2,616.1L446.6,616L446.7,615.9L446.7,615.4L446.9,615.2L447,614.9L447.3,614.9L447.3,614.7L447.6,614.6L447.7,614.6L447.8,614.4L448.2,614.4L448.6,614.4L448.8,614.2L449.1,614.2L449.1,613.8L449.1,613.5L449,613.1L448.9,613L448.6,612.7L448.8,612.5L448.7,612.4L448.5,612.5L448.6,612.3L448.5,612.1L448.7,612.1L448.7,611.9L448.8,611.6L448.7,611.5L448.8,611.3L448.7,611.2L448.4,611L448.4,610.8L448.1,610.5L448.2,610.3L448.5,610.3L448.7,610.1L449.1,610L449.2,609.8L449.2,609.4L449.3,609.3L449.2,609.1L449.4,608.9L449.6,608.8L449.6,608.7L449.4,608.4L449.4,608.1L449.4,608.1L449.2,608L449.2,607.7L449.5,607.3L449.5,607.1L449.1,607L448.9,606.5L448.4,606.5L448.3,606.4L448.3,605.8L448.3,605.6L448.2,605.4L448.3,605.3L448.2,605L448.1,604.8L448.1,604.6L448,604.3L448.1,603.7L448.1,603.5L448,603.1L448.1,602.9L447.9,602.6L447.4,602.6L448,602.4L448.4,602.5L448.6,602.7L449.1,602.6L449.7,602.8L450,603L450.3,602.9L450.6,602.6L450.8,602.7L450.9,603L450.6,603.3L450.7,603.5L450.9,603.7L451.2,603.6L451.5,603.3L452,603.3L452.4,603.1L452.4,602.9L452.2,602.8L452.3,602.6L452.5,602.6L452.7,602.4L452.8,602.2L453,601.9L453.2,601.8L453.4,601.8L453.6,601.4L453.9,601.2L454.1,601.3L454.5,601.1L454.7,601L455,600.9L455.6,600.6L455.9,600.6L456.1,600.7L456.6,600.6L456.8,600.5L457,600.5L457.4,600.3L457.7,600.2L457.9,600.1L458.2,600L458.5,599.9L458.9,599.9L459.1,599.7L459.5,599.8L459.6,600L459.5,600.1L459.9,599.9L460.1,600L460.4,599.9L460.5,599.8L460.9,599.7L461.3,599.7L461.6,599.9L461.8,599.8L461.9,599.6L462.1,599.4L462.8,599.2L462.9,599.1L462.9,598.7L463,598.6L463.3,598.4L463.4,598.3L463.9,597.9L464,597.9L464.4,597.6L464.4,597.4L464.6,597.2L464.9,597L463.3,602.7L462.8,604.4L459.8,614.3L459.8,614.3L459.2,616.5L458.8,617.9L458.6,618.4L458.4,618.4L457.6,618L457.3,618.1L457,618.1L456.6,617.6L456.4,617.1L456.2,616.9L456.2,616.9L456.2,616.8L456.2,616.8L456.2,616.8L456.2,616.8L456.2,616.8L456.1,616.8L456.1,616.8L456.1,616.8L456,616.8L455.7,616.7L455.5,616.8L455.1,616.9L454.8,616.9L454.6,616.9L454.1,616.8L453.8,616.7L453.4,616.4L453.3,616.1L453.1,615.6L452.8,615.5L452.4,615.4L452.4,615.4L452.3,615.5L451.6,615.8L451.2,615.9L451,615.9L450.7,615.9L450.3,615.8L449.6,615.7L449.5,615.7L449.1,616L448.8,616L448.6,615.9L448.4,616L448.2,616.2L447.7,616.4L447.3,616.8L447.1,616.8L446.8,616.8L446.4,616.8L446,616.9L445.7,616.9L445.3,616.9L445,616.9L444.9,616.9Z"></path>
  <path id="089010500" fill="#46085c" d="M441.1,628.3L441.5,628.2L441.6,627.9L441.6,627.8L442,627.4L442.3,627.2L442.6,626.8L442.8,626.8L442.8,626.5L443,626.3L442.9,626L442.6,625.8L442.7,625.4L442.7,625.2L442.5,625.1L442.2,625L442,624.8L441.9,624.5L441.6,624.4L441.2,624L441.3,623.5L441.6,623.2L441.9,622.8L441.8,622.5L442,622.3L442.1,622L442.2,621.9L442.6,621.9L443,621.8L443.5,621.8L443.8,621.6L443.2,621.3L443.3,621.3L443.1,620.9L442.7,620.7L442.4,620.4L442.3,620.1L442.4,619.9L443.1,619.8L443.6,619.8L443.8,619.7L443.5,619.6L443.2,619.4L442.6,619L442.5,618.9L442.3,618.5L442.3,618.2L442.4,618L442.9,617.8L442.6,617.3L443,616.8L443,616.6L443.1,616.7L443.3,617.1L443.6,617L444.6,617L444.9,616.9L445,616.9L445.3,616.9L445.7,616.9L446,616.9L446.4,616.8L446.8,616.8L447.1,616.8L447.3,616.8L447.7,616.4L448.2,616.2L448.4,616L448.6,615.9L448.8,616L449.1,616L449.5,615.7L449.6,615.7L450.3,615.8L450.7,615.9L451,615.9L451.2,615.9L451.6,615.8L452.3,615.5L452.4,615.4L452.4,615.4L452.8,615.5L453.1,615.6L453.3,616.1L453.4,616.4L453.8,616.7L454.1,616.8L454.6,616.9L454.8,616.9L455.1,616.9L455.5,616.8L455.7,616.7L456,616.8L456.1,616.8L456.1,616.8L456.1,616.8L456.2,616.8L456.2,616.8L456.2,616.8L456.2,616.8L456.2,616.8L456.2,616.9L456.2,616.9L456.4,617.1L456.6,617.6L457,618.1L457.3,618.1L457.6,618L458.4,618.4L458.6,618.4L456.9,624.2L455.5,628.8L453.6,628.8L453,628.8L449,628.7L448.6,628.7L444.8,628.6L442.3,628.5L440.9,628.5Z"></path>
  <path id="089010601" fill="#482979" d="M434.8,618L435,618.1L435.6,617.9L435.6,617.7L435.8,617.6L435.9,617.3L436,616.7L436,616.6L435.8,616.5L436,616.3L436.2,616.2L436.6,616.3L436.7,616.5L437.3,617L437.8,617.3L438.2,617.6L438.4,617.8L439.1,618.7L439.2,619L439.1,619.6L438.9,621.3L438.5,623.9L438.5,623.9L438.3,624L438.2,624L437.7,624L437,623.3L436.8,623.1L436.6,623L436.2,622.9L436,622.6L435.6,622.4L435.5,622.3L435.3,621.5L435.4,621.5L435.7,621.7L436.1,621.8L436.3,621.8L436.9,621.6L436.9,621.5L436.8,621.3L436.7,621.1L436.7,620.7L436.6,620.3L436.6,620.1L436.6,619.8L436.7,619.6L434.5,618.1Z"></path>
  <path id="089010602" fill="#481f70" d="M433.2,628.1L433.5,628L434,627.9L434.3,627.8L435.1,627.2L435.5,626.9L436.1,626.6L436.4,626.4L437.1,625.9L437.5,625.5L438.1,625L438.5,624.8L438.5,624.7L438.7,624.5L438.5,624.1L438.5,623.9L438.5,623.9L438.9,621.3L439.1,619.6L439.2,619L439.1,618.7L438.4,617.8L438.2,617.6L437.8,617.3L437.3,617L436.7,616.5L436.6,616.3L436.5,616.2L436.6,616L436.4,615.6L436.7,615.4L436.9,615.7L437.2,615.8L438.4,616.1L439.2,616.3L439.4,616.5L439.3,616.8L439.1,617L439.1,617.5L440.2,617.6L440.7,617.8L440.9,618.1L441.1,618.2L441.7,618L441.5,617.8L441.4,617.7L441.5,617.5L441.3,617.4L441.6,617.1L441.6,616.8L441.7,616.6L441.8,616.7L441.7,616.8L441.7,617.1L441.5,617.3L442.1,617.4L442.3,617.3L442.4,617.4L442.5,617.6L442.4,618L442.3,618.2L442.3,618.5L442.5,618.9L442.6,619L443.2,619.4L443.5,619.6L443.8,619.7L443.6,619.8L443.1,619.8L442.4,619.9L442.3,620.1L442.4,620.4L442.7,620.7L443.1,620.9L443.3,621.3L443.2,621.3L443.8,621.6L443.5,621.8L443,621.8L442.6,621.9L442.2,621.9L442.1,622L442,622.3L441.8,622.5L441.9,622.8L441.6,623.2L441.3,623.5L441.2,624L441.6,624.4L441.9,624.5L442,624.8L442.2,625L442.5,625.1L442.7,625.2L442.7,625.4L442.6,625.8L442.9,626L443,626.3L442.8,626.5L442.8,626.8L442.6,626.8L442.3,627.2L442,627.4L441.6,627.8L441.6,627.9L441.5,628.2L441.1,628.3L440.9,628.5L438.1,628.4L435.6,628.3L435.1,628.3L433.6,628.3L432.9,628.3Z"></path>
  <path id="089010900" fill="#470e61" d="M415.1,614.5L415.3,614.5L415.7,614.4L416,614.4L416.2,614.3L416.4,614.2L416.6,614.2L416.7,614L416.8,613.8L416.9,613.6L417.1,613.6L417.5,613.6L417.8,613.5L418.1,613.3L418.2,613.1L418.5,613.2L419,613.3L419.3,613.4L419.8,613.7L419.9,613.9L420.2,614.1L420.3,614.2L420.6,614.1L420.6,614L420.6,613.7L420.7,613.6L421.1,613.6L421.4,613.4L422.2,613.3L422.6,613.2L422.9,613.4L423.1,613.4L423.6,613.4L423.8,613.4L424.1,613.4L424.6,613.4L425,613.5L425.4,613.5L426,613.4L426.5,613.7L426.8,613.7L427,613.3L427.3,613.2L427.3,612.8L427.4,612.6L428.2,612.7L428.6,612.6L429.3,613.1L429.6,613.3L430.1,613.8L429.7,613.8L429.4,613.9L429.1,614.4L428.8,614.6L429.2,615.4L429.1,615.9L429,616.6L428.9,617.2L428.7,617.3L429.3,617.4L429.3,617.7L429.2,617.9L429.1,618.3L429.6,619L429.3,619.2L428.6,619.5L428.2,619.6L427.8,619.8L427.4,619.8L427.1,619.8L426.8,619.8L426.4,619.9L425.7,619.9L425.3,620L424.9,620.1L424.6,620.1L423.6,619.9L423.3,620L422.7,620.1L422,620.2L421.3,620.2L420.9,620.3L419.7,620.6L419,620.7L418.7,620.8L418.4,621L418.1,621.1L417.3,621.3L417,621.5L417.1,621.1L416.9,621L416.7,620.8L416.6,620.7L416.9,620.1L416.9,619.9L416.6,619.8L416.7,619.4L416.5,619.2L416.6,619.1L416.5,618.8L416.1,618.7L416,618.5L416.1,618.4L416.2,617.8L416.3,617.5L416.1,617L416.1,616.7L416.3,616.3L416.3,615.9L416.2,615.6L416.1,615.5L415.8,615.3L415.5,615.2L415.3,614.8L415.1,614.7Z"></path>
  <path id="089011100" fill="#482071" d="M422.3,605.9L423.1,605.4L422.9,605.2L422.9,605L423.1,604.9L424,604.9L424.1,605.1L424.3,605.3L424.7,605.4L425.4,605.9L425.5,606L425.8,605.9L426.2,605.7L426.5,605.6L426.6,605.5L427,605.4L427.3,605.7L427.3,605.9L427.4,606L427.7,606.1L427.8,606.2L428.2,606.4L428.2,606.2L428.2,606.2L428.5,606L429,605.9L429.5,605.5L429.8,605.7L430.3,605.5L430.6,605.6L430.6,605.8L430.7,606.1L430.7,606.3L430.4,606.9L430.4,607L430.7,608L430.6,608.2L430.5,608.6L430.5,609.2L430.5,609.3L430.4,609.5L430.4,609.6L430.3,609.8L430.1,609.9L429.9,610L428.9,610.1L428.6,610.2L427.4,609.5L425.8,608.7L425.5,608.6L425,608.3L424.9,608.3L424.3,608L423.9,607.6L422.6,606.3Z"></path>
  <path id="089011300" fill="#470d60" d="M422.1,602.9L423.7,598.8L424.7,599L428.2,599.7L431.3,600.3L431.3,600.3L431.3,600.3L432.2,600.4L436.5,601.3L436.6,601.3L444,602.8L443.8,603L443.4,603.2L443.3,603.4L442.9,603.8L442.7,603.9L442.4,604.4L442.2,604.8L442.4,604.9L442.8,605L443.1,605.4L443.1,605.5L442.9,605.5L442.8,605.4L442.6,605.6L442.4,605.5L442.5,605.8L442.4,605.9L442.2,605.8L441.9,606.1L442,606.3L441.8,606.5L441.6,606.4L441.3,606.4L441.1,606.5L441,606.5L440.3,606.4L440.2,606.5L440.5,606.7L440.3,606.9L439.9,606.7L439.7,606.6L439.6,606.6L439.4,606.7L439.1,607L438.9,607.2L438.5,607.1L438.5,607.3L438.4,607.7L438.2,607.8L438,607.9L437.7,607.9L437,608.1L436.8,608.4L436.8,609.1L436.8,608.7L436.7,608.5L436.7,608.5L436.7,607.9L436.6,607.6L436.8,607.2L436.8,606.9L436.9,606.7L436.9,606.5L436.8,606.4L436.8,606.1L436.3,606L435.9,606L435.5,605.8L435.4,605.7L435.2,605.7L435.1,605.7L434.8,605.5L434.7,605.5L434.3,605.8L434.3,606.1L434.2,606.2L433.7,606.1L433.6,606.2L433.4,606.3L433.5,606.7L433.3,606.7L433.1,606.7L433.1,606.7L432.9,607L432.2,607.4L432,607.7L431.8,607.9L431.5,608.3L431.3,608.2L430.9,608.2L430.6,608.2L430.7,608L430.4,607L430.4,606.9L430.7,606.3L430.7,606.1L430.6,605.8L430.6,605.6L430.3,605.5L429.8,605.7L429.5,605.5L429,605.9L428.5,606L428.2,606.2L428.2,606.2L428.2,606.4L427.8,606.2L427.7,606.1L427.4,606L427.3,605.9L427.3,605.7L427,605.4L426.6,605.5L426.5,605.6L426.2,605.7L425.8,605.9L425.5,606L425.4,605.9L424.7,605.4L424.3,605.3L424.1,605.1L424,604.9L425,604.8L425,604.6L424.8,604.4L424.8,604.3L424.8,603.6L424.7,603.3L424.3,603.2L423.3,603.3L422.5,603.1L422.4,603Z"></path>
</svg>
